<?xml version="1.0" encoding="UTF-8" standalone="no"?>
<!-- Created with Inkscape (http://www.inkscape.org/) -->

<svg
   width="210mm"
   height="297mm"
   viewBox="0 0 210 297"
   version="1.1"
   id="svg1"
   inkscape:version="1.4.3 (fcd0343856, 2026-01-01)"
   sodipodi:docname="t.svg"
   inkscape:export-filename="t.png"
   inkscape:export-xdpi="50.799999"
   inkscape:export-ydpi="50.799999"
   xmlns:inkscape="http://www.inkscape.org/namespaces/inkscape"
   xmlns:sodipodi="http://sodipodi.sourceforge.net/DTD/sodipodi-0.dtd"
   xmlns="http://www.w3.org/2000/svg"
   xmlns:svg="http://www.w3.org/2000/svg">
  <sodipodi:namedview
     id="namedview1"
     pagecolor="#ffffff"
     bordercolor="#000000"
     borderopacity="0.25"
     inkscape:showpageshadow="2"
     inkscape:pageopacity="0.0"
     inkscape:pagecheckerboard="0"
     inkscape:deskcolor="#d1d1d1"
     inkscape:document-units="mm"
     showgrid="true"
     inkscape:zoom="0.84166056"
     inkscape:cx="223.36796"
     inkscape:cy="1120.9982"
     inkscape:window-width="1854"
     inkscape:window-height="1011"
     inkscape:window-x="0"
     inkscape:window-y="0"
     inkscape:window-maximized="1"
     inkscape:current-layer="layer1">
    <inkscape:grid
       id="grid1"
       units="mm"
       originx="0"
       originy="0"
       spacingx="0.99999998"
       spacingy="1"
       empcolor="#0099e5"
       empopacity="0.30196078"
       color="#0099e5"
       opacity="0.14901961"
       empspacing="5"
       enabled="true"
       visible="true" />
  </sodipodi:namedview>
  <defs
     id="defs1" />
  <g
     inkscape:label="Layer 1"
     inkscape:groupmode="layer"
     id="layer1">
    <path
       id="rect4-0-1-2"
       style="fill:#ffffff;stroke:#000000;stroke-width:0.351231"
       d="m 162.07859,327.23574 c -1.98739,-0.0258 -3.59718,0.75347 -3.61008,1.74714 l -0.007,0.57277 6.91496,0.0898 c 0.10195,0.001 0.20272,0.004 0.30244,0.009 l 0.007,-0.57757 c 0.0129,-0.99367 -1.57677,-1.81451 -3.56417,-1.84032 z" />
    <path
       id="rect4-0-6"
       style="fill:#ffffff;stroke:#000000;stroke-width:0.351231"
       d="m 134.20597,327.36497 c -1.98739,-0.0258 -3.59718,0.75347 -3.61008,1.74714 l -0.007,0.57277 6.91496,0.0898 c 0.10194,0.001 0.20272,0.004 0.30244,0.009 l 0.007,-0.57757 c 0.0129,-0.99367 -1.57677,-1.81451 -3.56417,-1.84032 z" />
    <path
       id="rect4-0-2-7"
       style="fill:#ffffff;stroke:#000000;stroke-width:0.351231"
       d="m 106.02425,327.44501 c -1.98617,0.0744 -3.55463,0.93382 -3.51744,1.92688 l 0.0214,0.57241 6.91071,-0.25881 c 0.10186,-0.004 0.20267,-0.006 0.30252,-0.006 l -0.0216,-0.57721 c -0.0372,-0.99307 -1.66623,-1.73274 -3.6524,-1.65835 z" />
    <path
       id="rect4-3-3"
       style="fill:#ffffff;stroke:#000000;stroke-width:0.351231"
       d="m 44.49429,325.99003 c -1.930091,-0.47451 -3.674382,-0.0794 -3.911629,0.88565 l -0.136751,0.55625 6.715588,1.65099 c 0.09898,0.0244 0.196696,0.0494 0.292587,0.077 l 0.137892,-0.56089 c 0.237249,-0.96504 -1.125676,-2.12406 -3.055768,-2.59855 z"
       inkscape:export-filename="rect4-3-3.png"
       inkscape:export-xdpi="50.799999"
       inkscape:export-ydpi="50.799999" />
    <ellipse
       style="fill:#800000;stroke:#000000;stroke-width:0.308542"
       id="path5-5"
       cx="124.71669"
       cy="298.97958"
       rx="1.8336952"
       ry="1.548201"
       transform="rotate(13.811884)" />
    <rect
       style="fill:none;stroke:#000000;stroke-width:0.254206"
       id="rect1-6"
       width="30"
       height="30"
       x="30"
       y="305" />
    <rect
       style="fill:#ff0000;stroke:#000000;stroke-width:0.264583"
       id="rect2-2"
       width="10.000001"
       height="17.043556"
       x="115.07814"
       y="291.35187"
       ry="5"
       transform="rotate(13.811884)" />
    <ellipse
       style="fill:#ffffff;stroke:#000000;stroke-width:0.312155"
       id="path2-9"
       cx="123.24216"
       cy="296.49435"
       rx="1.6277255"
       ry="2.8518038"
       transform="rotate(13.811884)" />
    <ellipse
       style="fill:#1a1a1a;stroke:#000000;stroke-width:0.152574"
       id="path2-3-1"
       cx="124.12067"
       cy="296.18069"
       rx="0.79278737"
       ry="1.3988128"
       transform="rotate(13.811884)" />
    <path
       id="rect3-2"
       style="fill:#800000;stroke:#000000;stroke-width:0.331067"
       inkscape:transform-center-x="-1.0003232"
       inkscape:transform-center-y="1.7990704"
       d="m 45.16675,318.53493 c -0.147992,1.8e-4 -0.29854,0.0363 -0.438212,0.11214 -0.446956,0.24287 -0.61839,0.80184 -0.368458,1.24489 l 2.101491,4.01842 4.568372,0.21079 c 0.507907,0.028 0.939378,-0.35871 0.967384,-0.86662 0.028,-0.5079 -0.358198,-0.93938 -0.866096,-0.96738 l -3.484034,-0.19172 -1.67328,-3.07991 c -0.166969,-0.30728 -0.481584,-0.48097 -0.807185,-0.4806 z"
       sodipodi:nodetypes="sssccscccss" />
    <path
       id="rect4-0"
       style="fill:#ffffff;stroke:#000000;stroke-width:0.351231"
       d="m 44.205969,327.36499 c -1.987395,-0.0258 -3.597179,0.75347 -3.610083,1.74714 l -0.0074,0.57277 6.914963,0.0898 c 0.101943,0.001 0.202717,0.004 0.302441,0.009 l 0.0075,-0.57757 c 0.01291,-0.99367 -1.576774,-1.81451 -3.564169,-1.84032 z" />
    <path
       id="rect4-3-3-5"
       style="fill:#ffffff;stroke:#000000;stroke-width:0.351231"
       d="m 74.932619,325.84012 c -1.970049,0.26328 -3.449491,1.26823 -3.317842,2.25325 l 0.07588,0.56777 6.85461,-0.91609 c 0.101053,-0.0134 0.201149,-0.0259 0.300495,-0.0352 l -0.07651,-0.5725 c -0.131643,-0.98502 -1.823747,-1.56612 -3.79379,-1.30282 z"
       inkscape:export-filename="rect4-3-3.png"
       inkscape:export-xdpi="50.799999"
       inkscape:export-ydpi="50.799999" />
    <ellipse
       style="fill:#800000;stroke:#000000;stroke-width:0.308542"
       id="path5-5-9"
       cx="153.71664"
       cy="291.60739"
       rx="1.8336952"
       ry="1.548201"
       transform="rotate(13.811884)" />
    <rect
       style="fill:none;stroke:#000000;stroke-width:0.254206"
       id="rect1-6-2"
       width="30"
       height="30"
       x="60"
       y="305" />
    <rect
       style="fill:#ff0000;stroke:#000000;stroke-width:0.264583"
       id="rect2-2-2"
       width="10.000001"
       height="17.043556"
       x="144.07809"
       y="283.97968"
       ry="5"
       transform="rotate(13.811884)" />
    <ellipse
       style="fill:#ffffff;stroke:#000000;stroke-width:0.312155"
       id="path2-9-89"
       cx="152.24211"
       cy="289.12216"
       rx="1.6277255"
       ry="2.8518038"
       transform="rotate(13.811884)" />
    <ellipse
       style="fill:#1a1a1a;stroke:#000000;stroke-width:0.152574"
       id="path2-3-1-73"
       cx="153.12062"
       cy="288.8085"
       rx="0.79278737"
       ry="1.3988128"
       transform="rotate(13.811884)" />
    <path
       id="rect3-2-6"
       style="fill:#800000;stroke:#000000;stroke-width:0.331067"
       inkscape:transform-center-x="-1.0003232"
       inkscape:transform-center-y="1.7990704"
       d="m 75.088159,318.29916 c -0.147992,1.8e-4 -0.29854,0.0363 -0.438212,0.11214 -0.446956,0.24287 -0.61839,0.80184 -0.368458,1.24489 l 2.101491,4.01842 4.568372,0.21079 c 0.507907,0.028 0.939378,-0.35871 0.967384,-0.86662 0.028,-0.5079 -0.358198,-0.93938 -0.866096,-0.96738 l -3.484034,-0.19172 -1.67328,-3.07991 c -0.166969,-0.30728 -0.481584,-0.48097 -0.807185,-0.4806 z"
       sodipodi:nodetypes="sssccscccss" />
    <path
       id="rect4-0-1"
       style="fill:#ffffff;stroke:#000000;stroke-width:0.351231"
       d="m 72.078592,327.23576 c -1.987395,-0.0258 -3.597179,0.75347 -3.610083,1.74714 l -0.0074,0.57277 6.914963,0.0898 c 0.101943,0.001 0.202717,0.004 0.302441,0.009 l 0.0075,-0.57757 c 0.01291,-0.99367 -1.576774,-1.81451 -3.564169,-1.84032 z" />
    <path
       id="rect4-3-3-6"
       style="fill:#ffffff;stroke:#000000;stroke-width:0.351231"
       d="m 11.704356,326.54014 c -1.930091,-0.47451 -3.674382,-0.0794 -3.911629,0.88565 l -0.136751,0.55625 6.715588,1.65099 c 0.09898,0.0244 0.196696,0.0494 0.292587,0.077 l 0.137892,-0.56089 c 0.237249,-0.96504 -1.125676,-2.12406 -3.055768,-2.59855 z"
       inkscape:export-filename="rect4-3-3.png"
       inkscape:export-xdpi="50.799999"
       inkscape:export-ydpi="50.799999" />
    <ellipse
       style="fill:#800000;stroke:#000000;stroke-width:0.308542"
       id="path5-5-2"
       cx="95.649803"
       cy="306.40875"
       rx="1.8336952"
       ry="1.548201"
       transform="rotate(13.811884)" />
    <rect
       style="fill:none;stroke:#000000;stroke-width:0.254206"
       id="rect1-6-6"
       width="30"
       height="30"
       x="-3.5527137e-15"
       y="305" />
    <rect
       style="fill:#ff0000;stroke:#000000;stroke-width:0.264583"
       id="rect2-2-1"
       width="10.000001"
       height="17.043556"
       x="86.011253"
       y="298.78104"
       ry="5"
       transform="rotate(13.811884)" />
    <ellipse
       style="fill:#ffffff;stroke:#000000;stroke-width:0.312155"
       id="path2-9-8"
       cx="94.175278"
       cy="303.92352"
       rx="1.6277255"
       ry="2.8518038"
       transform="rotate(13.811884)" />
    <ellipse
       style="fill:#1a1a1a;stroke:#000000;stroke-width:0.152574"
       id="path2-3-1-7"
       cx="95.053787"
       cy="303.60986"
       rx="0.79278737"
       ry="1.3988128"
       transform="rotate(13.811884)" />
    <path
       id="rect3-2-9"
       style="fill:#800000;stroke:#000000;stroke-width:0.331067"
       inkscape:transform-center-x="-1.0003232"
       inkscape:transform-center-y="1.7990704"
       d="m 15.16675,318.80998 c -0.147991,1.8e-4 -0.29854,0.0362 -0.438211,0.11214 -0.446957,0.24287 -0.61839,0.80183 -0.368459,1.24489 l 2.101491,4.01842 4.568372,0.21079 c 0.507907,0.028 0.939378,-0.35871 0.967384,-0.86663 0.028,-0.50789 -0.358197,-0.93937 -0.866096,-0.96737 l -3.484034,-0.19172 -1.67328,-3.07992 c -0.166969,-0.30727 -0.481584,-0.48097 -0.807185,-0.48059 z"
       sodipodi:nodetypes="sssccscccss" />
    <path
       id="rect4-0-2"
       style="fill:#ffffff;stroke:#000000;stroke-width:0.351231"
       d="m 16.024245,327.44503 c -1.98617,0.0744 -3.55463,0.93382 -3.517433,1.92688 l 0.02144,0.57241 6.910703,-0.25881 c 0.101865,-0.004 0.202676,-0.006 0.302525,-0.006 l -0.02161,-0.57721 c -0.03719,-0.99307 -1.666228,-1.73274 -3.652398,-1.65835 z" />
    <ellipse
       style="fill:#800000;stroke:#000000;stroke-width:0.308542"
       id="path5-5-20"
       cx="212.11432"
       cy="277.49344"
       rx="1.8336952"
       ry="1.548201"
       transform="rotate(13.811884)" />
    <rect
       style="fill:none;stroke:#000000;stroke-width:0.254206"
       id="rect1-6-61"
       width="30"
       height="30"
       x="120"
       y="305" />
    <rect
       style="fill:#ff0000;stroke:#000000;stroke-width:0.264583"
       id="rect2-2-5"
       width="10.000001"
       height="17.043556"
       x="202.47577"
       y="269.86572"
       ry="5"
       transform="rotate(13.811884)" />
    <ellipse
       style="fill:#ffffff;stroke:#000000;stroke-width:0.312155"
       id="path2-9-5"
       cx="210.63979"
       cy="275.00821"
       rx="1.6277255"
       ry="2.8518038"
       transform="rotate(13.811884)" />
    <ellipse
       style="fill:#1a1a1a;stroke:#000000;stroke-width:0.152574"
       id="path2-3-1-4"
       cx="211.5183"
       cy="274.69455"
       rx="0.79278737"
       ry="1.3988128"
       transform="rotate(13.811884)" />
    <path
       id="rect3-2-7"
       style="fill:#800000;stroke:#000000;stroke-width:0.331067"
       inkscape:transform-center-x="-1.0003232"
       inkscape:transform-center-y="1.7990704"
       d="m 135.16675,318.53491 c -0.14799,1.8e-4 -0.29854,0.0363 -0.43821,0.11214 -0.44696,0.24287 -0.61839,0.80184 -0.36846,1.24489 l 2.10149,4.01842 4.56838,0.21079 c 0.5079,0.028 0.93937,-0.35871 0.96738,-0.86662 0.028,-0.5079 -0.3582,-0.93938 -0.8661,-0.96738 l -3.48403,-0.19172 -1.67328,-3.07991 c -0.16697,-0.30728 -0.48158,-0.48097 -0.80719,-0.4806 z"
       sodipodi:nodetypes="sssccscccss" />
    <ellipse
       style="fill:#800000;stroke:#000000;stroke-width:0.308542"
       id="path5-5-9-6"
       cx="241.11427"
       cy="270.12125"
       rx="1.8336952"
       ry="1.548201"
       transform="rotate(13.811884)" />
    <rect
       style="fill:none;stroke:#000000;stroke-width:0.254206"
       id="rect1-6-2-9"
       width="30"
       height="30"
       x="150"
       y="305" />
    <rect
       style="fill:#ff0000;stroke:#000000;stroke-width:0.264583"
       id="rect2-2-2-3"
       width="10.000001"
       height="17.043556"
       x="231.47572"
       y="262.49353"
       ry="5"
       transform="rotate(13.811884)" />
    <ellipse
       style="fill:#ffffff;stroke:#000000;stroke-width:0.312155"
       id="path2-9-89-7"
       cx="239.63974"
       cy="267.63602"
       rx="1.6277255"
       ry="2.8518038"
       transform="rotate(13.811884)" />
    <ellipse
       style="fill:#1a1a1a;stroke:#000000;stroke-width:0.152574"
       id="path2-3-1-73-4"
       cx="240.51825"
       cy="267.32236"
       rx="0.79278737"
       ry="1.3988128"
       transform="rotate(13.811884)" />
    <path
       id="rect3-2-6-5"
       style="fill:#800000;stroke:#000000;stroke-width:0.331067"
       inkscape:transform-center-x="-1.0003232"
       inkscape:transform-center-y="1.7990704"
       d="m 165.08816,318.29914 c -0.14799,1.8e-4 -0.29854,0.0363 -0.43821,0.11214 -0.44696,0.24287 -0.61839,0.80184 -0.36846,1.24489 l 2.10149,4.01842 4.56837,0.21079 c 0.50791,0.028 0.93938,-0.35871 0.96739,-0.86662 0.028,-0.5079 -0.3582,-0.93938 -0.8661,-0.96738 l -3.48403,-0.19172 -1.67328,-3.07991 c -0.16697,-0.30728 -0.48159,-0.48097 -0.80719,-0.4806 z"
       sodipodi:nodetypes="sssccscccss" />
    <ellipse
       style="fill:#800000;stroke:#000000;stroke-width:0.308542"
       id="path5-5-2-4"
       cx="183.04744"
       cy="284.92261"
       rx="1.8336952"
       ry="1.548201"
       transform="rotate(13.811884)" />
    <rect
       style="fill:none;stroke:#000000;stroke-width:0.254206"
       id="rect1-6-6-7"
       width="30"
       height="30"
       x="90"
       y="305" />
    <rect
       style="fill:#ff0000;stroke:#000000;stroke-width:0.264583"
       id="rect2-2-1-4"
       width="10.000001"
       height="17.043556"
       x="173.40889"
       y="277.29489"
       ry="5"
       transform="rotate(13.811884)" />
    <ellipse
       style="fill:#ffffff;stroke:#000000;stroke-width:0.312155"
       id="path2-9-8-4"
       cx="181.57291"
       cy="282.43738"
       rx="1.6277255"
       ry="2.8518038"
       transform="rotate(13.811884)" />
    <ellipse
       style="fill:#1a1a1a;stroke:#000000;stroke-width:0.152574"
       id="path2-3-1-7-3"
       cx="182.45142"
       cy="282.12372"
       rx="0.79278737"
       ry="1.3988128"
       transform="rotate(13.811884)" />
    <path
       id="rect3-2-9-0"
       style="fill:#800000;stroke:#000000;stroke-width:0.331067"
       inkscape:transform-center-x="-1.0003232"
       inkscape:transform-center-y="1.7990704"
       d="m 105.16675,318.80996 c -0.14799,1.8e-4 -0.29854,0.0362 -0.43821,0.11214 -0.44696,0.24287 -0.61839,0.80183 -0.36846,1.24489 l 2.10149,4.01842 4.56838,0.21079 c 0.5079,0.028 0.93937,-0.35871 0.96738,-0.86663 0.028,-0.50789 -0.3582,-0.93937 -0.8661,-0.96737 l -3.48403,-0.19172 -1.67328,-3.07992 c -0.16697,-0.30727 -0.48158,-0.48097 -0.80719,-0.48059 z"
       sodipodi:nodetypes="sssccscccss" />
    <path
       id="rect4-3-3-6-5"
       style="fill:#ffffff;stroke:#000000;stroke-width:0.351231"
       d="m 101.70436,326.54012 c -1.930093,-0.47451 -3.674384,-0.0794 -3.911631,0.88565 l -0.136751,0.55625 6.715592,1.65099 c 0.099,0.0244 0.19669,0.0494 0.29258,0.077 l 0.1379,-0.56089 c 0.23724,-0.96504 -1.12568,-2.12406 -3.05577,-2.59855 z"
       inkscape:export-filename="rect4-3-3.png"
       inkscape:export-xdpi="50.799999"
       inkscape:export-ydpi="50.799999" />
    <path
       id="rect4-3-3-3"
       style="fill:#ffffff;stroke:#000000;stroke-width:0.351231"
       d="m 134.49429,325.99001 c -1.93009,-0.47451 -3.67438,-0.0794 -3.91163,0.88565 l -0.13675,0.55625 6.71559,1.65099 c 0.099,0.0244 0.1967,0.0494 0.29259,0.077 l 0.13789,-0.56089 c 0.23725,-0.96504 -1.12568,-2.12406 -3.05577,-2.59855 z"
       inkscape:export-filename="rect4-3-3.png"
       inkscape:export-xdpi="50.799999"
       inkscape:export-ydpi="50.799999" />
    <path
       id="rect4-3-3-5-5"
       style="fill:#ffffff;stroke:#000000;stroke-width:0.351231"
       d="m 164.93262,325.8401 c -1.97005,0.26328 -3.44949,1.26823 -3.31784,2.25325 l 0.0759,0.56777 6.85461,-0.91609 c 0.10105,-0.0134 0.20115,-0.0259 0.30049,-0.0352 l -0.0765,-0.5725 c -0.13164,-0.98502 -1.82375,-1.56612 -3.79379,-1.30282 z"
       inkscape:export-filename="rect4-3-3.png"
       inkscape:export-xdpi="50.799999"
       inkscape:export-ydpi="50.799999" />
  </g>
</svg>
